<mxfile host="app.diagrams.net" modified="2021-08-04T09:28:27.302Z" agent="5.0 (Macintosh; Intel Mac OS X 10_15_7) AppleWebKit/605.1.15 (KHTML, like Gecko) Version/14.1.1 Safari/605.1.15" etag="7K6_pFTEFTQuBvaUns5c" version="14.9.2" type="github">
  <diagram id="cDn7WSwnbWyhTK0NfhJb" name="Page-1">
    <mxGraphModel dx="1351" dy="921" grid="1" gridSize="10" guides="1" tooltips="1" connect="1" arrows="1" fold="1" page="1" pageScale="1" pageWidth="1169" pageHeight="827" math="0" shadow="0">
      <root>
        <mxCell id="0" />
        <mxCell id="1" parent="0" />
        <mxCell id="Q9_NqKBs_nhXcMOELPVL-6" value="" style="pointerEvents=1;shadow=0;dashed=0;html=1;strokeColor=none;fillColor=#005F4B;labelPosition=center;verticalLabelPosition=bottom;verticalAlign=top;align=center;outlineConnect=0;shape=mxgraph.veeam2.sql_server;" vertex="1" parent="1">
          <mxGeometry x="420" y="540" width="40" height="52" as="geometry" />
        </mxCell>
        <mxCell id="Q9_NqKBs_nhXcMOELPVL-25" value="" style="group" vertex="1" connectable="0" parent="1">
          <mxGeometry x="60" y="100" width="111.75999999999999" height="510" as="geometry" />
        </mxCell>
        <mxCell id="Q9_NqKBs_nhXcMOELPVL-23" value="" style="whiteSpace=wrap;html=1;fillColor=none;dashed=1;rounded=1;" vertex="1" parent="Q9_NqKBs_nhXcMOELPVL-25">
          <mxGeometry width="90" height="510" as="geometry" />
        </mxCell>
        <mxCell id="Q9_NqKBs_nhXcMOELPVL-1" value="" style="outlineConnect=0;fontColor=#232F3E;gradientColor=none;fillColor=#116D5B;strokeColor=none;dashed=0;verticalLabelPosition=bottom;verticalAlign=top;align=center;html=1;fontSize=12;fontStyle=0;aspect=fixed;shape=mxgraph.aws4.transfer_for_sftp_resource;" vertex="1" parent="Q9_NqKBs_nhXcMOELPVL-25">
          <mxGeometry x="20" y="50" width="50" height="51.32" as="geometry" />
        </mxCell>
        <mxCell id="Q9_NqKBs_nhXcMOELPVL-2" value="" style="outlineConnect=0;fontColor=#232F3E;gradientColor=none;fillColor=#116D5B;strokeColor=none;dashed=0;verticalLabelPosition=bottom;verticalAlign=top;align=center;html=1;fontSize=12;fontStyle=0;aspect=fixed;shape=mxgraph.aws4.transfer_for_ftp_resource;" vertex="1" parent="Q9_NqKBs_nhXcMOELPVL-25">
          <mxGeometry x="20" y="101.32" width="50" height="51.31" as="geometry" />
        </mxCell>
        <mxCell id="Q9_NqKBs_nhXcMOELPVL-8" value="" style="outlineConnect=0;fontColor=#232F3E;gradientColor=none;fillColor=#3334B9;strokeColor=none;dashed=0;verticalLabelPosition=bottom;verticalAlign=top;align=center;html=1;fontSize=12;fontStyle=0;aspect=fixed;pointerEvents=1;shape=mxgraph.aws4.rds_sql_server_instance;" vertex="1" parent="Q9_NqKBs_nhXcMOELPVL-25">
          <mxGeometry x="20" y="289" width="50" height="50" as="geometry" />
        </mxCell>
        <mxCell id="Q9_NqKBs_nhXcMOELPVL-9" value="" style="outlineConnect=0;dashed=0;verticalLabelPosition=bottom;verticalAlign=top;align=center;html=1;shape=mxgraph.aws3.mysql_db_instance;fillColor=#2E73B8;gradientColor=none;" vertex="1" parent="Q9_NqKBs_nhXcMOELPVL-25">
          <mxGeometry x="20" y="240" width="50" height="44.5" as="geometry" />
        </mxCell>
        <mxCell id="Q9_NqKBs_nhXcMOELPVL-19" value="" style="group" vertex="1" connectable="0" parent="Q9_NqKBs_nhXcMOELPVL-25">
          <mxGeometry x="15.989999999999995" y="160" width="60.000000000000014" height="60" as="geometry" />
        </mxCell>
        <mxCell id="Q9_NqKBs_nhXcMOELPVL-17" value="" style="group" vertex="1" connectable="0" parent="Q9_NqKBs_nhXcMOELPVL-19">
          <mxGeometry y="30" width="60" height="30" as="geometry" />
        </mxCell>
        <mxCell id="Q9_NqKBs_nhXcMOELPVL-12" value="Blob&lt;br&gt;Storage" style="text;html=1;resizable=0;autosize=1;align=center;verticalAlign=middle;points=[];fillColor=none;strokeColor=none;rounded=0;" vertex="1" parent="Q9_NqKBs_nhXcMOELPVL-17">
          <mxGeometry y="15.929199644242155" width="60" height="30" as="geometry" />
        </mxCell>
        <mxCell id="Q9_NqKBs_nhXcMOELPVL-4" value="" style="shape=image;verticalLabelPosition=bottom;labelBackgroundColor=#ffffff;verticalAlign=top;aspect=fixed;imageAspect=0;image=data:image/svg+xml,PHN2ZyB4bWxuczpjYz0iaHR0cDovL2NyZWF0aXZlY29tbW9ucy5vcmcvbnMjIiB4bWxuczpkYz0iaHR0cDovL3B1cmwub3JnL2RjL2VsZW1lbnRzLzEuMS8iIHhtbG5zOmlua3NjYXBlPSJodHRwOi8vd3d3Lmlua3NjYXBlLm9yZy9uYW1lc3BhY2VzL2lua3NjYXBlIiB4bWxuczpyZGY9Imh0dHA6Ly93d3cudzMub3JnLzE5OTkvMDIvMjItcmRmLXN5bnRheC1ucyMiIHhtbG5zOnNvZGlwb2RpPSJodHRwOi8vc29kaXBvZGkuc291cmNlZm9yZ2UubmV0L0RURC9zb2RpcG9kaS0wLmR0ZCIgeG1sbnM6c3ZnPSJodHRwOi8vd3d3LnczLm9yZy8yMDAwL3N2ZyIgeG1sbnM9Imh0dHA6Ly93d3cudzMub3JnLzIwMDAvc3ZnIiB4bWxuczp4bGluaz0iaHR0cDovL3d3dy53My5vcmcvMTk5OS94bGluayIgdmVyc2lvbj0iMS4xIiBpZD0ic3ZnMTA5Mjk0IiBpbmtzY2FwZTp2ZXJzaW9uPSIwLjkyLjMgKDI0MDU1NDYsIDIwMTgtMDMtMTEpIiBzb2RpcG9kaTpkb2NuYW1lPSJhenVyZV9ibG9iX3N0b3JhZ2Uuc3ZnIiB4PSIwcHgiIHk9IjBweCIgdmlld0JveD0iMCAwIDc2LjQyIDY2LjMiIHN0eWxlPSJlbmFibGUtYmFja2dyb3VuZDpuZXcgMCAwIDc2LjQyIDY2LjM7IiB4bWw6c3BhY2U9InByZXNlcnZlIj4mI3hhOzxzb2RpcG9kaTpuYW1lZHZpZXcgYm9yZGVyY29sb3I9IiM2NjY2NjYiIGJvcmRlcm9wYWNpdHk9IjEiIGZpdC1tYXJnaW4tYm90dG9tPSIwIiBmaXQtbWFyZ2luLWxlZnQ9IjAiIGZpdC1tYXJnaW4tcmlnaHQ9IjAiIGZpdC1tYXJnaW4tdG9wPSIwIiBncmlkdG9sZXJhbmNlPSIxMCIgZ3VpZGV0b2xlcmFuY2U9IjEwIiBpZD0ibmFtZWR2aWV3MTA5Mjk2IiBpbmtzY2FwZTpjdXJyZW50LWxheWVyPSJzdmcxMDkyOTQiIGlua3NjYXBlOmN4PSI1MC45NDUxOTMiIGlua3NjYXBlOmN5PSI0NC4xOTk1NTEiIGlua3NjYXBlOnBhZ2VvcGFjaXR5PSIwIiBpbmtzY2FwZTpwYWdlc2hhZG93PSIyIiBpbmtzY2FwZTp3aW5kb3ctaGVpZ2h0PSIxMDE3IiBpbmtzY2FwZTp3aW5kb3ctbWF4aW1pemVkPSIxIiBpbmtzY2FwZTp3aW5kb3ctd2lkdGg9IjE5MjAiIGlua3NjYXBlOndpbmRvdy14PSItOCIgaW5rc2NhcGU6d2luZG93LXk9Ii04IiBpbmtzY2FwZTp6b29tPSI4Ljc0NjA0MTEiIG9iamVjdHRvbGVyYW5jZT0iMTAiIHBhZ2Vjb2xvcj0iI2ZmZmZmZiIgc2hvd2dyaWQ9ImZhbHNlIj4mI3hhOwk8L3NvZGlwb2RpOm5hbWVkdmlldz4mI3hhOzxnIGlkPSJnMTA5MjkyIiB0cmFuc2Zvcm09InRyYW5zbGF0ZSgtNC4wMjYzMiwtNC4wMjM4NzY1KSI+JiN4YTsJPHRpdGxlIGlkPSJ0aXRsZTEwOTI2NCI+UGFnZS0xPC90aXRsZT4mI3hhOwk8ZyBpZD0iZ3JvdXAyNjQtMSIgdHJhbnNmb3JtPSJ0cmFuc2xhdGUoNC4wMjYzMiwtNC4wMjYzMikiPiYjeGE7CQk8dGl0bGUgaWQ9InRpdGxlMTA5MjY2Ij5BenVyZSBCbG9iIFN0b3JhZ2UgKERlcHJlY2F0ZWQpPC90aXRsZT4mI3hhOwkJPGcgaWQ9Imdyb3VwMjY1LTIiPiYjeGE7CQkJPHRpdGxlIGlkPSJ0aXRsZTEwOTI2OCI+U2hlZXQuMjY1PC90aXRsZT4mI3hhOwkJCTxnIGlkPSJzaGFwZTI2Ni0zIj4mI3hhOwkJCQk8dGl0bGUgaWQ9InRpdGxlMTA5MjcwIj5TaGVldC4yNjY8L3RpdGxlPiYjeGE7CQkJCTxwYXRoIGlkPSJwYXRoMTA5MjcyIiBpbmtzY2FwZTpjb25uZWN0b3ItY3VydmF0dXJlPSIwIiBzdHlsZT0iZmlsbDojMDA3OEQ3OyIgZD0iTTU3LjM2LDguMDVIMTkuMDVMMCw0MS4ybDE5LjA1LDMzLjE1aDM4LjMxICAgICAgTDc2LjQyLDQxLjJMNTcuMzYsOC4wNXogTTU3LjU2LDU2LjA5YzAsMi43OC0yLjM4LDUuMTYtNS4xNiw1LjE2SDI0LjIyYy0yLjc4LDAtNS4xNy0yLjM4LTUuMTctNS4xNlYyNi41MSAgICAgIGMwLTIuNzgsMi4zOS01LjE2LDUuMTctNS4xNmgyMC44NGMxLjk4LDAsMy45NywwLDMuOTcsMGgwLjU5bDcuOTQsNy45NHY0LjE3TDU3LjU2LDU2LjA5eiIvPiYjeGE7CQkJPC9nPiYjeGE7CQkJPGcgaWQ9InNoYXBlMjY3LTUiIHRyYW5zZm9ybT0idHJhbnNsYXRlKDMyLjE1NTEsLTIxLjQzNjgpIj4mI3hhOwkJCQk8dGl0bGUgaWQ9InRpdGxlMTA5Mjc1Ij5TaGVldC4yNjc8L3RpdGxlPiYjeGE7CQkJCTxwYXRoIGlkPSJwYXRoMTA5Mjc3IiBpbmtzY2FwZTpjb25uZWN0b3ItY3VydmF0dXJlPSIwIiBzdHlsZT0iZmlsbDojMDA3OEQ3OyIgZD0iTTMuMTgsNjhjMC0wLjQtMC4yLTAuNi0wLjItMC44ICAgICAgYzAtMC4yLTAuMi0wLjM5LTAuNC0wLjU5cy0wLjItMC4yLTAuNC0wLjJzLTAuMzksMC0wLjU5LDBjLTAuNCwwLTAuNiwwLTAuOCwwLjJDMC42LDY2LjgxLDAuNCw2NywwLjIsNjcuNFMwLDY4LjE5LDAsNjguNTkgICAgICBjMCwwLjQsMCwwLjk5LDAsMS43OWMwLDAuNzksMCwxLjM5LDAsMS45OGMwLDAuNiwwLjIsMSwwLjQsMS4xOWMwLjIsMC40LDAuMzksMC42LDAuNTksMC42YzAuMiwwLjIsMC40LDAuMiwwLjgsMC4yICAgICAgYzAuMTksMCwwLjM5LDAsMC41OS0wLjJjMC4yLDAsMC40LTAuMiwwLjQtMC40YzAuMi0wLjIsMC4yLTAuMzksMC40LTAuNTljMC0wLjIsMC4xOS0wLjQsMC4xOS0wLjhjMC0wLjIsMC0wLjU5LDAuMi0wLjk5ICAgICAgYzAtMC40LDAtMC43OSwwLTEuMTljMC0wLjYsMC0wLjk5LDAtMS4zOUMzLjE4LDY4LjU5LDMuMTgsNjguMzksMy4xOCw2OHoiLz4mI3hhOwkJCTwvZz4mI3hhOwkJCTxnIGlkPSJzaGFwZTI2OC03IiB0cmFuc2Zvcm09InRyYW5zbGF0ZSg0MS4wODcxLC0zNi45MTg5KSI+JiN4YTsJCQkJPHRpdGxlIGlkPSJ0aXRsZTEwOTI4MCI+U2hlZXQuMjY4PC90aXRsZT4mI3hhOwkJCQk8cGF0aCBpZD0icGF0aDEwOTI4MiIgaW5rc2NhcGU6Y29ubmVjdG9yLWN1cnZhdHVyZT0iMCIgc3R5bGU9ImZpbGw6IzAwNzhENzsiIGQ9Ik0zLjE4LDY4YzAtMC40LTAuMi0wLjYtMC4yLTAuOCAgICAgIGMwLTAuMi0wLjItMC4zOS0wLjQtMC41OXMtMC4yLTAuMi0wLjQtMC4ycy0wLjM5LDAtMC41OSwwYy0wLjQsMC0wLjYsMC0wLjgsMC4yQzAuNiw2Ni44MSwwLjQsNjcsMC4yLDY3LjRTMCw2OC4xOSwwLDY4LjU5ICAgICAgYzAsMC40LDAsMC45OSwwLDEuNzljMCwwLjc5LDAsMS4zOSwwLDEuOThjMCwwLjYsMC4yLDEsMC40LDEuMTljMC4yLDAuNCwwLjM5LDAuNiwwLjU5LDAuNmMwLjIsMC4yLDAuNCwwLjIsMC44LDAuMiAgICAgIGMwLjE5LDAsMC4zOSwwLDAuNTktMC4yYzAuMiwwLDAuNC0wLjIsMC40LTAuNGMwLjItMC4yLDAuMi0wLjM5LDAuNC0wLjU5YzAtMC4yLDAuMTktMC40LDAuMTktMC44YzAtMC4yLDAtMC41OSwwLjItMC45OSAgICAgIGMwLTAuNCwwLTAuNzksMC0xLjE5YzAtMC42LDAtMC45OSwwLTEuMzlDMy4zNyw2OC43OSwzLjM3LDY4LjM5LDMuMTgsNjh6Ii8+JiN4YTsJCQk8L2c+JiN4YTsJCQk8ZyBpZD0ic2hhcGUyNjktOSIgdHJhbnNmb3JtPSJ0cmFuc2xhdGUoMjEuODMzNywtMTUuODc5MSkiPiYjeGE7CQkJCTx0aXRsZSBpZD0idGl0bGUxMDkyODUiPlNoZWV0LjI2OTwvdGl0bGU+JiN4YTsJCQkJPHBhdGggaWQ9InBhdGgxMDkyODciIGlua3NjYXBlOmNvbm5lY3Rvci1jdXJ2YXR1cmU9IjAiIHN0eWxlPSJmaWxsOiMwMDc4RDc7IiBkPSJNMjYuNCw0MC4wMWMtMC43OSwwLTEuOTksMC0zLjE4LDBIMi4zOCAgICAgIEMwLjk5LDQwLjAxLDAsNDEsMCw0Mi4zOXYyOS41OGMwLDEuMzksMC45OSwyLjM4LDIuMzgsMi4zOGgyOC4xOWMxLjE5LDAsMi4zOC0wLjk5LDIuMzgtMi4zOFY0Ni41NkgyNi42di02LjU1SDI2LjR6ICAgICAgIE04LjczLDQ1Ljk2di0wLjE5di0wLjJjMCwwLDAsMCwwLjItMC4ybDIuMzgtMS41OWMwLDAsMCwwLDAuMiwwaDAuMmgwLjJjMC4yLDAsMC4yLDAsMC40LDBjMC4xOSwwLDAuMzksMCwwLjU5LDBzMC4yLDAsMC40LDAgICAgICBoMC4yYzAsMCwwLDAsMCwwLjJ2OS4zM2gxLjc4aDAuMmMwLDAsMCwwLDAuMiwwLjJjMC4yLDAuMTksMCwwLjE5LDAsMC4xOWMwLDAuMiwwLDAuMiwwLDAuNHMwLDAuNCwwLDAuNGMwLDAuMiwwLDAuMiwwLDAuMiAgICAgIHMwLDAuMi0wLjIsMC4yYzAsMCwwLDAtMC4yLDBIOS4xM2MwLDAsMCwwLTAuMiwwYzAsMCwwLDAtMC4yLTAuMnYtMC4yYzAtMC4yLDAtMC4yLDAtMC40czAtMC40LDAtMC40YzAtMC4xOSwwLTAuMTksMC0wLjE5ICAgICAgczAtMC4yLDAuMi0wLjJjMCwwLDAsMCwwLjIsMGgyLjE4di03LjM1bC0xLjc4LDFjLTAuMiwwLTAuMiwwLjE5LTAuNCwwLjE5aC0wLjJjMCwwLDAtMC4xOS0wLjItMC4xOWMwLTAuMiwwLTAuMiwwLTAuNiAgICAgIEM4LjczLDQ2LjE2LDguNzMsNDUuOTYsOC43Myw0NS45NnogTTE1LjY4LDY3LjJjLTAuMiwwLjgtMC40LDEuMzktMC43OSwxLjc5Yy0wLjQsMC41OS0wLjgsMC45OS0xLjE5LDEuMTkgICAgICBjLTAuNiwwLjItMS4yLDAuNC0xLjk5LDAuNHMtMS4zOS0wLjItMS45OC0wLjRjLTAuNi0wLjItMS0wLjYtMS4xOS0xLjE5Yy0wLjItMC42LTAuNi0xLjE5LTAuNi0xLjc5ICAgICAgYy0wLjItMC43OS0wLjItMS41OS0wLjItMi4zOGMwLTAuOTksMC0xLjc5LDAuMi0yLjM4YzAuMi0wLjgsMC40LTEuMzksMC43OS0xLjc5YzAuNC0wLjM5LDAuOC0wLjk5LDEuMTktMS4xOSAgICAgIGMwLjYtMC4yLDEuMi0wLjQsMS45OS0wLjRzMS4zOSwwLjIsMS45OCwwLjRjMC42LDAuMiwxLDAuNiwxLjIsMS4xOWMwLjE5LDAuNiwwLjU5LDEuMTksMC41OSwxLjc5YzAuMiwwLjc5LDAuMiwxLjU5LDAuMiwyLjM4ICAgICAgQzE1Ljg4LDY1LjgxLDE1Ljg4LDY2LjYxLDE1LjY4LDY3LjJ6IE0yNC42MSw2OS45OGMwLDAuMiwwLDAuMiwwLDAuMnMwLDAuMi0wLjIsMC4yYzAsMCwwLDAtMC4xOSwwaC02LjE2YzAsMCwwLDAtMC4yLDAgICAgICBjMCwwLDAsMC0wLjE5LTAuMnYtMC4yYzAtMC4yLDAtMC4yLDAtMC40YzAtMC4xOSwwLTAuMzksMC0wLjM5YzAtMC4yLDAtMC4yLDAtMC4yczAtMC4yLDAuMTktMC4yYzAsMCwwLDAsMC4yLDBoMi4xOXYtNy4zNCAgICAgIGwtMS43OSwwLjk5Yy0wLjIsMC0wLjIsMC4yLTAuNCwwLjJoLTAuMmMwLDAsMC0wLjItMC4xOS0wLjJjMC0wLjIsMC0wLjIsMC0wLjZjMC0wLjIsMC0wLjIsMC0wLjM5di0wLjJ2LTAuMmMwLDAsMCwwLDAuMTktMC4yICAgICAgbDIuMzktMS41OWMwLDAsMCwwLDAuMTksMGgwLjJoMC4yYzAuMiwwLDAuMiwwLDAuNCwwYzAuMiwwLDAuNCwwLDAuNTksMGMwLjIsMCwwLjIsMCwwLjQsMGgwLjJjMCwwLDAsMCwwLDAuMnY5LjMzaDEuNzloMC4xOSAgICAgIGMwLDAsMCwwLDAuMiwwLjJ2MC4yYzAsMC4yLDAsMC4yLDAsMC4zOUMyNC42MSw2OS43OCwyNC42MSw2OS45OCwyNC42MSw2OS45OHogTTI0LjgxLDUxLjcyYy0wLjIsMC43OS0wLjQsMS4zOS0wLjc5LDEuNzkgICAgICBjLTAuNCwwLjU5LTAuOCwwLjk5LTEuMTksMS4xOWMtMC42LDAuMi0xLjE5LDAuMzktMS45OSwwLjM5Yy0wLjc5LDAtMS4zOS0wLjE5LTEuOTgtMC4zOWMtMC42LTAuMi0xLTAuNi0xLjE5LTEuMTkgICAgICBjLTAuMi0wLjQtMC42LTEuMTktMC42LTEuNzljMC0wLjYtMC4yLTEuNTktMC4yLTIuMzhjMC0wLjk5LDAtMS43OSwwLjItMi4zOGMwLjItMC44LDAuNC0xLjM5LDAuNzktMS43OSAgICAgIGMwLjQtMC42LDAuOC0wLjk5LDEuMTktMS4xOWMwLjYtMC4yLDEuMi0wLjQsMS45OS0wLjRjMC43OSwwLDEuMzksMC4yLDEuOTgsMC40YzAuNiwwLjIsMSwwLjU5LDEuMiwxLjE5ICAgICAgYzAuMTksMC42LDAuNTksMS4xOSwwLjU5LDEuNzljMC4yLDAuNzksMC4yLDEuNTgsMC4yLDIuMzhDMjUuMDEsNTAuMzMsMjQuODEsNTEuMTIsMjQuODEsNTEuNzJ6Ii8+JiN4YTsJCQk8L2c+JiN4YTsJCTwvZz4mI3hhOwk8L2c+JiN4YTs8L2c+JiN4YTs8L3N2Zz4=;" vertex="1" parent="Q9_NqKBs_nhXcMOELPVL-19">
          <mxGeometry x="4.460000000000008" width="51.07" height="44.34" as="geometry" />
        </mxCell>
        <mxCell id="Q9_NqKBs_nhXcMOELPVL-21" value="" style="group" vertex="1" connectable="0" parent="Q9_NqKBs_nhXcMOELPVL-25">
          <mxGeometry x="15.990000000000009" y="340" width="60" height="70" as="geometry" />
        </mxCell>
        <mxCell id="Q9_NqKBs_nhXcMOELPVL-16" value="" style="shape=image;verticalLabelPosition=bottom;labelBackgroundColor=#ffffff;verticalAlign=top;aspect=fixed;imageAspect=0;image=data:image/png,iVBORw0KGgoAAAANSUhEUgAAAFYAAABECAYAAAAbSMJnAAAAAXNSR0IArs4c6QAAAHhlWElmTU0AKgAAAAgABAEaAAUAAAABAAAAPgEbAAUAAAABAAAARgEoAAMAAAABAAIAAIdpAAQAAAABAAAATgAAAAAAAACQAAAAAQAAAJAAAAABAAOgAQADAAAAAQABAACgAgAEAAAAAQAAAFagAwAEAAAAAQAAAEQAAAAA0TlypAAAAAlwSFlzAAAWJQAAFiUBSVIk8AAAEDVJREFUeAHtXHl0T1ce/0RkQxISWxCJJfa1xlb7WnNsrRNDW/uoqpo/OlqG0ZZT5hTDcMaxl5m2RmdsHbVXa6KWhjqUip1EiIjEkkQii5jv5yYvfb/3e79VNqf9nvPLe+/e++7yud/73e59AX6lYkHA46lQsdT8C67UQ6jcL3j8xTr0X4EtJnjLF1O9RVptXl4e+IuNjcXZs2dx7tw53LlzB7m5uZBVp9oqV64catasiQYNGqB9+/YIDw9XeZ6enkXaF2crK9My9tKlSzh06BAuXryI+Ph4pKenK7A0MM0GSZXBSahQoQLq1KmjgO7WrRtatmwJgl8SRBlb5oDNysrC5cuXsW7dOly5cqVIwHjy5AlCQkIwfvx4tG3bVoFenACXOWBjYmIUoFevXkVxGCvk2Nq1a+PVV19F165diw3bMgNsamoqNm3ahO3bt8Pb29vhgLXlTvnp5eWlZC3lLYGTQTl8nxzcu3dvjBs3DsHBwQ7Lu1qgTABLJTRjxgzcv3/fLpcSDILOpdyhQwc0bNgQgYGB8PHxUeNOTk7G9evXcfLkSZw4cULJY4Juj1jfBx98gFatWtkr5nJeqQN75swZLF68WIFq1nuCWaNGDXTp0gUdO3ZEkyZNUL68Y0OGHE3FR4CPHj2KuLg42LIOKlWqhClTphSpaChVYG/duoWpU6eC4JkRuWnkyJGIjIw0y3Yp7eDBg1i1ahUyMzNN38vJycGHH36ITp06mea7mlhqwNJ8mjt3rlquxk6T23r06KEUDBVNURFFxbZt27Br1y5TkePn54fp06ejXbt2z9xkkQJLziNH0FwiOFQklHG0J/XL8PHjx3j//feVbWocAd+hxh4+fHiRmFnG+tmvPXv24JNPPgG51EjVq1fHihUrnFKgxnf1z0UCLDv71VdfKVl27949ZGdnK2ClcgUstW7nzp3Rv39/kCuWLVuGAwcOWGlvlp85c6bymvQToe9wUdyzvxcuXMBHH31ktWKYFy4e29KlSy2YwdV2nwnYR48eqdmnmUQutAcGPSEqCS7xL7/8slCTax2mQpowYQIGDRqkJRX7NSoqSgFolPF8puwfMGCA1eQ72ykC65aPl5aWpjTpZ599ppaUPVDZGS7xjIwMNRGaeaTvJDX+wIED9UnFfs9JHjp0qHJ/9Y1xLPv37wcZ51nIZWDps0+bNs2h3elspxg4efvtt93mDmfbMStHB6F58+ZWyoyuNL3AZyGXgaXdmZiYaNom5SRnnBzK5c2rI5o0aZISE47KFVf+mDFjlOzX189xbNy4UZ/k8r1ja1tXJZe+WWCEQp9mCpczI0pUUpS7CQkJ2Llzp/KGWMZIERERaNSokTG5RJ8ZZqxXrx7Onz9v0S4DQTdu3EDdunUt0p19cBrYpKQk7N6924oLqZiGDRuG0aNHKytA3zCXeevWrbFlyxbs2LEDlM0aUUnQUggICNCSSuXq6+urHAMufXKqRlx5R44ccRtYx2u1oCXOKG1UPRFUeitjx461AlUrxw6OGDEC8+fPV/4908m99PX79eunFSvVa58+fZSZqO8EQSbXcozukNPAUmkxgqQngvbee+/ZNbW08uFiHy5YsEBpYgZP3n33XSvu18qW9JWrhmLJSLTLac24Q04Dy+i9UU5S/piZT7Y6Qk+M9uqaNWuULLZVrjTSOfHG8dHZoa5wh5wGVi9/tIaMHdHS7V1ZD91cs/rsvVfceVS6xvEQVFuBG0f9cRpYCnkjUTy4K4OMdZX2s5lpyLEZPTNn++k0sJp9qq+YjW7evFmf9NzeU5YaVxGtGLrst2/fdnlcDoGlAKfSYQPGpcJZpinl7qy63NtifIGrz0iMgB07dgxvvfWWYiBXFJldYGngz549G4cPH7ap+blfxb3+552MTKMfD0XC559/roIzN2/e1GfZvLcJLLczCCpn0rhEtNpoizLUV9R7Rlr9JXlt3LixOvBBk9IMZKYxWD5nzhxwF9kRmZ4rePDgAWbNmgVbs0OtzuXRvXt3m6A7argk8pUXLc7Uz/6U/VbJmdwrYyCcuxy2iGbj2rVrERQUZFpEGNH8wMaGDRtU3NQ4c5Q5DLVxL6py5cqmlZaVxAX7r+NwfBoiqvhiyTDX4hEEmF4Xt+MpY404cIzkcK5oOjtGIq5WoiAlJQVbt261qkzKYuLEiZg8eXKZBDUzJw9/P3wTcfcywXDP3Kh47Lx8H387FI/s3DzcTs1W+WlZ5puXenColAkct+XJSGamGDmax59skZUo4IYa4wIEUk99+/ZVwW1ntp/175XU/Rv/voB/nE5CoI8nBkZUxqen7gLlZQxPnmJ4y6qIik1FSmYOXm4SjC1jWzjdLXLrvn37sHLlSitmq1KlCtavX2+l2K04lqf5KJiNoNKGHTVqlFN7+k73uIgL1qkiBzcEx5THufj0bHI+qGzD0wObY1KQlMHNQw/UD7J2dOx1hVjw1MyLL75oVYzKbO/evVbpTLAQBdxkM9qklDeMTtkS1Ka1lkLi9F510bJ6hfyWRRa0qe6HeX3D0LuOP5CXHwtuLPJ2dt9wl3vHMw4UCcadXTIc5bAZFQJLljdzUSlfCGxZpZ9up6PnylOI+DgapxPz96leaRqEU3/sgD8LiN9MfQFvdgiRWCVwXuRv00XR6LHiFI7Hpbo0JJ7CCQsLsxIHdKB4TMpIhcAyg2aWkRhdN4oGY5nSfI57kIUoAenWoxyltPinT8MqFl3qVl80t4gJ8m1CRi6+u5GKWAHZVRo8eLBVbITY8FSPkSyANWby2Sz4YlautNJeqO2Pvw6oh4kv1EBVP9kQEQBXRyfgpgBOeiiydc2xBHUf4O2JsW2q4+OX6qFjuLWZpArZ+UOHiKJRT1zpxjg18x1uzRh3DfSVFtd9dOxDrD6RKCtFWhA2Cw3wwpyX6ps2FxLgjWk96+Jqcib2X7kPCCOevZuJ0PnH0CLYFz+lSDxVFBjJ37sc/tg9FK1qVTKty1Giv7+/FbC23rEAlkLaSGbiwVimqJ9H/+cCLt/TBZhzn2Jw4yC0C7ftlMzeex3xYqsqosslYP5EriWoVF7lPJCQnoMZu65izxut3eoyvTIqLD1RFJiJykJRwEyzQ7gUzLa2u/UNuHN/KSkDF+88ypeNBRXcSc3CPZGXFiTgfHFG7FId0dA/eu0BkgvKdg4LEI70RJdQf2z6XRMgu2DJZj/B+lcaoafkV5R8o/zVVenw9ttvv7UCli/xzJeRLDiWiooOgF5m8HnhwoVYsmSJ8d1net4dk4zIjTHCSB5K7i0Z2hA+Xp64IEv6saUYU3LzG7FFMSR/X+q8TMZr8m6MlG0vy/qwaP6pXeUIfJuqCPDzhk/5cpi5+xpihUMpT8Z3roXX2tdEqkxGEOWwG0SbledtjYeZycH8vsFIFq20aNFCvagHlpxM+/b48ePqJLWxAlefuSpXH5OzsTuuIB+/p1gh8vSwaPZZvesiOS0bWU+MyAKnEjPwg2jzL368i1Xf38Ij8ahIR+JT0XRhNL4Y1RytdbJzXWRjnBPzKyzYT5Uj2NXk5w5RYXHr3wgqFRcDUWYi1MqlZWSHRq/RPw4PD8e8efOe+RzAY/Hp6847iru2fPYCeWgKAGWnTLQZDW8ajI2jmsHL0z3wzOrU0ngEn66+UZETcJ6YMQZihBmtgzCvv/66Op6uVapdWTlPPZvZbFoZZ67e4r+PaVfDFj5KydisxwaokMmiKCgOULn8GcUygkpupTdmBFXru9X00m7leSYj21MkMI7AwHZ0dLRVQ1qFjq6UqR/0q4cGle377OxYRa9y8HWwfKmj10c2QvcGlk6Bo344yuc2DOMAixYtsjjBo71HhcWTPLbIShSwIPfTGc0xOyDMfCq00NBQVTGjXq6cLeD7pNsPs9Bq6Q9IzrQ8BOIhq31Y82BM7lgLNcRGzRXR8L3I3zn7riPpsYT8dJKAt5OE+1cOb6JPVvW7+4ecyVPfPMrJ1UnONBLjKWQwfnRChjMSRYEpsCxI+UFrwFagl2XYACumD83vBcyEOE04Hn3nwWNSmgCZIAqKJtWSQzew5fw9lc4/5NK1LzfEhE61C9O0mzwZYOQ/z+G/F1O0mAq8xQyb2ycMfSOCUNPfC9Uq5VsEfIdf5JDj2D+SdlUPJn84FgJ57do1lWvUMdor2oq2d0ha2rINLCtiNGf16tVqBo2GsdaQo2uzZs3UNwdRsZl4c/slPBRgaaWKzY8nwo2F/CCGwKzudTB/UAObVZLLf7PspPj7P9u5YvejvPzxFJ6l3uou0axVYsemJ17HO++8YzrZNhtwkMHDG9yy6tmzp92JIq5kEptEOctj4zyfRVvNbFnYfLkgg/tjFBUbTyXhptiVaWImPZYfl3ghqFK2gpeHgFrfbnUhgT4Y0aqaRRmpBtlSX6aYaOmixA6I2Dhz+5E6wlRUcQ6uXka3li9fjl69etkFVeuchR2rJRqvnCHKE5oW/IaAALsKst0ZlAabKHvTWl4Z+9JGPCsck1QbRdXKL8jjciYo7pIwnuJ4KnMufT47S04By8rIvePGjcOQIUPUTiY/rTx9+rQ6nMsBaD9jw5RdT2Vweu40luHzZQZLnKCrjLk6MT6eu6IiMpOVtsBmOhmmVq1a6iA1/+8BOdWdM7xOA6uNmTsJPBOrfcVHuUOhz3jCw4cPtWKFVyovDwG+p+xDnRVX9L747umyffJQHAQ9L6VJ+vLv4jG1W2jhu8abFFF4G8TzsiCZMV+xjf19yqOy7HeFi7jg9ouf31O1RW/GZdQXxnSm8aB0eHg4KlasaJVv0aYTDzatAifedakIrZbMnCcK0AwBNVkU0MKDcdimswp8RAn9a2RTDDPIUa2hKVsvYs0PidwfVKSsgt5hGCQ7Bv6+XvLzFIDli/Bi8L60PjhzlUnzcJljnanYrAzFUwWJLvEHEZOV0j3xo/j/esoSTTR68wWckJhAfwkTBon5lCdK6ZIEWxbLNvaJm3LUnmZAAVEBJj/KRotaUmEZoxLjWP24swWsdktO5Aeh9Rm6e+LH5Uqll6uUpS5Tfyt5X09ogb6Nq+pTS/WeHOtIWRd5B2ke/eWbOMQ4UFYsRzs3R34UIzZJwB+04RyOC5eXJSpxYHkqZeWRBAvFpQHCzniJN2WLKFPNiLtbi/8XjxxN+JoVKuG0EgfWW4IqsyXuyuBJIQlHhlT0wqbhjTFXzgeUp0A2klgSX/++FSa2lWg92VlHVcUi+JPUaW9SdMVL5LbElJc2GsrOP/QIVX7+jP2xSn4OFUW1UFzZ2hLxirp6X3YAPJCbYwleRFU/dK9fWf0iW1fHTNnjOiUeVruQivh6UmtUqeClNVEmriUOrDbqN7vWQW8BlFRfvC7PAm0fIfe+cm/xibBg3L/Zz8rpJTl/1SksEBdlz6yBAF7WQOWYSg1YNh5RreBIEB8KiPGAyrIvlaLfYRArYpScB9BToJTpIBuEZZVKFVgzUGhiLfptfayKupFvbonoCAn0RicRA88TlYod+zwB5E5fS8WOdaejz+M7JW5uPY8g/drnMoTA/wHvjJ69IZtAZQAAAABJRU5ErkJggg==;" vertex="1" parent="Q9_NqKBs_nhXcMOELPVL-21">
          <mxGeometry x="2.8499999999999943" width="54.31" height="42.94" as="geometry" />
        </mxCell>
        <mxCell id="Q9_NqKBs_nhXcMOELPVL-20" value="Web &lt;br&gt;Service" style="text;html=1;resizable=0;autosize=1;align=center;verticalAlign=middle;points=[];fillColor=none;strokeColor=none;rounded=0;" vertex="1" parent="Q9_NqKBs_nhXcMOELPVL-21">
          <mxGeometry y="40" width="60" height="30" as="geometry" />
        </mxCell>
        <mxCell id="Q9_NqKBs_nhXcMOELPVL-22" value="" style="group" vertex="1" connectable="0" parent="Q9_NqKBs_nhXcMOELPVL-25">
          <mxGeometry x="15.990000000000009" y="420" width="95.77" height="72" as="geometry" />
        </mxCell>
        <mxCell id="Q9_NqKBs_nhXcMOELPVL-3" value="" style="outlineConnect=0;fontColor=#232F3E;gradientColor=none;fillColor=#277116;strokeColor=none;dashed=0;verticalLabelPosition=bottom;verticalAlign=top;align=center;html=1;fontSize=12;fontStyle=0;aspect=fixed;pointerEvents=1;shape=mxgraph.aws4.bucket;" vertex="1" parent="Q9_NqKBs_nhXcMOELPVL-22">
          <mxGeometry x="11.05185799999999" width="38.46" height="40" as="geometry" />
        </mxCell>
        <mxCell id="Q9_NqKBs_nhXcMOELPVL-10" value="S3 &lt;br&gt;Bucket" style="text;html=1;resizable=0;autosize=1;align=center;verticalAlign=middle;points=[];fillColor=none;strokeColor=none;rounded=0;" vertex="1" parent="Q9_NqKBs_nhXcMOELPVL-22">
          <mxGeometry y="42" width="50" height="30" as="geometry" />
        </mxCell>
        <mxCell id="Q9_NqKBs_nhXcMOELPVL-24" value="&lt;font style=&quot;font-size: 15px&quot;&gt;&lt;b&gt;Sources&lt;/b&gt;&lt;/font&gt;" style="text;html=1;resizable=0;autosize=1;align=center;verticalAlign=middle;points=[];fillColor=none;strokeColor=none;rounded=0;dashed=1;" vertex="1" parent="Q9_NqKBs_nhXcMOELPVL-25">
          <mxGeometry x="10.989999999999995" y="10" width="70" height="20" as="geometry" />
        </mxCell>
        <mxCell id="Q9_NqKBs_nhXcMOELPVL-26" value="" style="shape=image;verticalLabelPosition=bottom;labelBackgroundColor=#ffffff;verticalAlign=top;aspect=fixed;imageAspect=0;image=data:image/png,iVBORw0KGgoAAAANSUhEUgAAAFIAAABWCAYAAABcvcGNAAAAAXNSR0IArs4c6QAAAHhlWElmTU0AKgAAAAgABAEaAAUAAAABAAAAPgEbAAUAAAABAAAARgEoAAMAAAABAAIAAIdpAAQAAAABAAAATgAAAAAAAACQAAAAAQAAAJAAAAABAAOgAQADAAAAAQABAACgAgAEAAAAAQAAAFKgAwAEAAAAAQAAAFYAAAAAuBGRiQAAAAlwSFlzAAAWJQAAFiUBSVIk8AAAE+lJREFUeAHtXQl4VdW1XjfDzQRJyEhCQoAQCAQEQRQQLCigvjqCBWetIBapWotY20prra+v70OpIPVpC4jvQRGqtQwiU0FEkTBPYUqAhCEhA0nIPJH0//fNTe69OffmJPfE8D2yPjbnnnP22Wfvf6+99tprr3Ui0kGGIGBiKXV1dTz6I92MNBXpTqQwpA5qikAeLm1EWoy0G6nMZDIpAAlkHC68jvQ4ki9SBzWPQAWyLEN6C0BmmAAiOfE9JIJoRuog/QhUISvBfIFA3oEfm5A8kDqo5QjU4pEJBO85pA4QWw6g9QmFITmyAFeCrVc7jq1CoJBA1rXq0Y6H7BDoGNJ2cLT+pAPI1mNn9+Q1BWR5NSdAfZRdUiW115BU8tJX7bbLdQmArE8tkG8yrshVvObt8T0lPMDb5QuZ/+2dFyTQx1OGRnWSe/qGyMCIAPHyUAs1l8+21c12m2wqamrlhS9PyydHcqWkChDWg/DaiBj5r/E9nLY3q7hKnl2bKl8ATCFu9Vw5rFtn2frkQOlk9nT6bFveaLehXQ4gF+3JkhIcrSCyoe/vy5IVAFdr1F6trZPFB7IbQeQDJqCJdDirVGpwv72o3YBUg1BjJBZVXpXffpUhZwrLm2Cy+lS+vPn1OQsnOt7VQt4xTxuetxuQljZpIIlLqfkV8uCK43bN5pCeviZVqp1wXXurw+072WjgqNDD9SN5ZdJ17i41cslsVyBHK646H7rO79j1R5udtCuQxNEVANnlNbob7qoc3YW4kbHNhrazIWitqwcnCQOJzJqJ4a9FBPnU5XJZgomqJbqqVlnOrrWJ+rPhdKH8bmu6DInuJA8PjJDR3QPt3p8F3fGZz0/JhjOF2hOHXW79J31CfOXFW6Jl5rBo9VDF1VpZfihHPj+RDyDLJKu0WsaiLmseTdJfqM6chgOZXlgp/RbukQouUsgKEHBhvl4ytncX+fmIbnK5rFqe/ucpyWvBsNXZFpXNE5x+V3ywUFXann5FqGbZqlfM9PLwaJk3oVdLim02r6FA5gGkRz49IVvQgCbEGQP/OKLrDB7WTd9Vf8WJ9IjqZJYPfhgv9/YNVTp9k+dbccEwGUll+H8xjHZdLNGuBsHD6qXNQeTbCaATEHk7u7RKtp4tlEpyq0Fk2KzNFV559VWpqnWzchQHbCA5mGDw3Av9beA6OtzPW26LCxYflmsQGQikSV4c3k12ZBTJRvR2a8jf20NGxHSW126NkX7h/soIcbmsRv52JEeW7L8klyBXia+7NLFfqDAZSYbKSFbscHapTFh2VLJLql0OL7tGAJ0BsN688YPuMrE/5ZaVFZnLMkZLwe1TV6diBr4sVZiNFadSXFhu2xXn9ASdMDy6s2z78UDxNZAbVS3bYqth0+kCeeCT41LOBuugPqF+8veHEuWGyADJgfxalZInJ3LLYG8UiYBJbcrAcOkX5icVNXXy4b5LcqGoUnw9TZJRVCWrASzX53oAjcYks/3pG6Q31CSjyXCOtFaQVpppa06hgc2wDNBa/Uh/uQ82xSxw8Y//mSrbYZusrO8EqjORfl6ye/pgiQ40K7WGyjeLrcaPc1eqZM62DPk0JdelHDUj/1rojxPiu1iraOjROGnrUK1RsYHStbOPw9Wmp+PQsKFQ3Env786UjeBmKtIUhUw1GPYXoVb1eHcvzk1qvV0AWUnZSQt5YpivLLm/N1SZEJdMWYUOK6zQv+RkfVpCbQbkSSzJsp0s2awVjA/2lScxbLsqi7hJ3vr6vNMhWg1t4NXNZ2EMPiNJf94nCe/tlelr02QP1K3OMOZ+cE+CBPu6Muqa5N1dmdZXG340bNZ2rNn/Hc4BB5GnNIY21JvZo2PVzHlj1wDxhGqjeJCqk4cTMJBn3ncXka+RVhzNg7yskr9N6isxgT7yGDplIcHy1OAPVOPgpRJlGH4wMVRCIC6MJMNl5PrUfPk11tkpueXatkOA+PGkRHl0YBjUG0uDVxzNkYW7L8nO81gRNSdTHVofAJXpj+N6yk+HRanZnLbMn4Frt0BECCYkR/LGtUBvT+G6/JVR6EyAagS5BSRnVS4LKbPeTc6U5Yezpbiifv+laRuUX8ysEdHy+9vjxAwQN8G48dy6VMkoqLRMFBrPNNdIAjMLa/iXYawIxprejHPKwufXnZaVx/PUzK9ZBgcLGkDmHR4bJG9P6CnDocO2ltwCkmarB1cek72QU2rIuQCCtwaG+8qi+xJkWLcgNak8tOqEZePLxXN6GkaujMbENiUprEFcXETdxi49IqkF9L5zTWaIjdfBnXPGdHed0cVdDWHiIrfDrRyYpajT1RKIZsDwNtVK/6AapXizmBfXnzYERJZViv3w1PxyeWvHeZn5xWk5CwtUNwD7MlZamPaZxSUxR3P2U5cF4KZbQFL9aL6aFHueEliTK/FdfMQP8mnnhSI5BVnWHPjNVV7r/p7MEvkrlHbSJKySpFqfyuOus4FbQPoDFCrMrsgDUIfUZktpVaVEBfqprIezyyxKoqsHW3mPgJRwpQPyV3vcrutnfY27Fnu3dIAg6G0+XqgoZx0N6wxv+dUWS35xiXBSyLxi2WJVeqO+9lnbqfvogXrQ+EEqpeOBs/eooQSFHsaRO3oEySgHK77uF9ZndAvIcH9vWXp/H6XLLcKScOuZAqnjrAPQiKtPXbmUlxUqfZLLufSCEqnB8U5Yy71NdVLttJUtbUZj/hBw4aODItSFtSfzLSa4xtsieH9n6JBTB0fK2J5B0rOLr/QN9VcdbZutpb/dApK+NqO6B6l3ThkQjrVvLWZjqDRfpElWQalUV+YCOMswIwPklVZAXarE0tFPpg6Nkg92Z2nqenobQQtOBYcxew2jgoy4Y+og6RPqq3TKt746Zw8k8qx/YgDW28HNiiS9dbDmc0v9sRaidZy77ai8una/3ZAn8PPuu0mev7WPst3etSxFki8WW/ZVtApxdQ2cte6xJPlhnxBJxcYWjbTdg2jVsaypX9pwRpYfyQMDNk6HfhgpZb++1VWprb7nFke6euvtCVHiZ/YCSBaOZF5uRyxJTpUx8ZEyMCpYVsF0tgpWm69g7UnJK1cDfQBkFs1qc7+5IJU2IDi+yxvA3Z1AS06dJGBokqhDfJeeJ4v2Z8k/ThbbgYhbMr6NLD98d5sB2S3IX0b3ipBNpzB8behgZqFMXLJN/jJlBHYWo2TmzdHyCNbIuVghkWh/7OLrDT3QLDOw24ilis3T9T8hQt6HbOaIziwql99tOiypuUVSXVUjOdjaTi0LwN5Q0+d8tNbgTUtv1ZU2G9rHLhXKiAVfShEap0Vq2zQxShZNHimhAT6KG60MSCMGQVp8MFtmrE6TWpxQraGmRfHwGxg8fjEqRv1el3JB7l28TYkQXy9PqerUU2prG0eB3bshDigj78ZkZzS1CZAV2BYYtXCD7Ltwmdq48zoTOQx9s69ZhsWGKQtQNjnszkHy2NCeANekLObvwf1vf1aJJHTxk5exro4Lstg5t5++JGMWbBBMueLl5S2mTjFYoTh/He944J2HZgzFCssiDlzn1n+3TYB84bNdsvBbDEuyVSsoAhz61LB4eXVskoTht4VYlmXiSM8vkVUHMuSXGw4oFdbby0c8A8Klos61p6+1KiPglPrRA32g9lgWCNbr7hwNB3L+juMya/U+uDFbGt3qyoFz+kUGSY8unWRM70iJDwuUDAC46WSWnMkrkrNQr2g99/TEogAglouf7jd6o4N/MrSr/OGOHoZ5+BoK5MHMAvnR0u2Sll/cavw0H1R9Ut8xDqIiOChcCussWxWazzq5GIxJ7Avs4Yx0c0VjLd7QWfvs5WIpqbbMvtYXGHJUEsJeTFBq+PkHA0TaEDW4n5fsH2moCjnyqRsjZVBUQMM1d39YFqXullL//L1JsTL15t5ol0bDmAfXvRw4qjWvZhGevsFS5hXCQpsU0Q+yb9qQSOmF5R8nF8csg7CHzqEdgEnKKDJ0aLNSZVB3xn+4WXamY3uULea2KvZihvaMlDnjBkpiRJDM+fKA/P1Auv3yrQUtMvsGSY1PF0w0DiwHzOIxo6/GiqdHsI/aaWTExDr4nr+PmT+Dpjtgt+fZwXITHAWMJMOBtFauzx8+VyuZ2bcnyYyRfa2XG44bTmbKA0u2Yv+6KUc1ZNL44W32E5N/JHyMmoLImJu92P92RnzXSbhU0xHBaGozIJurKD3BZv4jWRYnpzmVZY5leHv7iFdAhJTXaoh29AetOYy1aQ8yVEa2rAGQl1yyOTBWkzJo66RshZpT5ws1RwvE+ofoXNpepNG131dVTHBkgsBi252AGYY19/xJw6UKq5+RPSJk2rp02XGOW7badaRe2V7UbkByHlL+iU5A4ZJl50v/IQnhjf7nW55Mkpg/7WkwcDiC1o4M6d7ml2NDWnJO/MwurDH/ec8QOxBZNvN/NjlRusOZSosgdtuN2lFG0taA1zuyEc6n35Igs8f01wTlFqyTn7sJtk7YIxtIDek66QmVp72o3YY2Jxoq7wVlVbJsbxq2IWBIBN3UPVReHJ2IbQMboGzQIVe+BK+KjWkF8jWc/uk4dV9imPK26F5vFbLJ/r39bDf1x7GFKdmFsmDHCRkZF64sP473Hc+5hZACZ9QbsEq5FuiaAfJaAMOdOmiPH3dKvE6f7QDSoI7vALIDSIMQMKiYDo40CEjdemRpVa3kqL3nOqVD00Drb/YQ+v/YUj68d1X0gHXph+Uvl4NcBQf7eDX4blMPZ3BT+pVKifD3kqTwAKFTFokOrAxQspBNQbhAY2w09rydEZ0QzqFMOm0xroZbu7aUBsdT6yVyET3qwgO8sHxvzMfnad2LQNsC0EY9pFv9WYkvn/CbEkUMsSAy9daG7rBC//f4HvIjeMtyr3oWIg/mbT9nydNYNzGh9j8b2U3eQXgvg9Af/OSYHAeQnlihXK23Sb6OyK85SA8tPyproXA3EHuhvqy7sCe97vEBTQCy5v0M7s4PLU9R5R6aORQd1Ljtyogxn19ttzgd2NQtNsRP3oS37uSkcOXJFjk3WSpgEP4LvIsZLKWHdHMke9ELXkpBnt7yPBzfyVEE5Es4vT8Fjwi6mQyBYZVuxPRmCg0wy5T+YQ29DwaR2+Bwxfr/BB1yHM/eiOXeZOQpRqXXwok/vbBCBSRNGhAh/RB7Q+v2RwdzlG/QDGwNdMYHkxLhnoIviGq2jV63r21JV0BRYedHlj6CR0YjWermB2+08b2CpX+YP6LHKuXTY3nyy3+lq8iIcbhOV8WaOg+hi6Be0g2ktcAgNIbbmPR8KIDj/W1LDskpDJdvzhUpIK35OKzegYM7PSNIZCrrIMnFcpCX+4NbZiOAk8PvKbjZMV7GD53wBDam6MeTVVwtK1Muq6jbV5EvFktADkFn7dsMt8I0rHbCECrC+vH7QQvujlflqkrU/0f/SXLfo/CgY2fRq+0juCUexbNj4CvZGrK2TfezVmagh6sP2MxqcGE0gS0VQAR8jPjtpajgUrierDyaq+QO83RVDRV4i+VK0v/sl3fAOQQwql72ESiKCVvA+D7Ha7bv4+/pa9LEA6A8DJfnsXFBKgzvGQSCahFry7aQy+lnRCrDPMCRxk5vKbWYI/PLr8pP15+RaniUJl8ohi94uXQD99F51JYyiyvllY1nGi5FQ3Dfj5gWMyzdax5JkmdXn5LdcEPh93xmQ66+sumsCht5ZWRMqyJXt569osJUQhGLPbF/uByB/KXY+RfSRQQ1dbMxvTGcjsFL/LYaAwrmJ2fCUcBD+VVykrJniYYmuPzRYiDLYPT77FiukmuMJqDH6/w7e8GEZR9xynCNN0bHWuYlVCEAnOJLsxmIJrCPJ/ZVRocDAJM+kh/svSR/xk7f8JhAoZxqCTEAdEHyRRWN64XJfjFiu6ll1AKwK0h/xfkbNqEfxXBOnfvtBZmLKAhWsAu0hsn4iMkIxE8SxO+FIyPBWRufSFKfMvjV1gzJwRdT4hCt4EgMUXtmSNcGIG3v//Gb8wq8+Xf1kqchGyf2C5NFALIEHZOGLdNxvWxzN/975/liOQQOVAgAhTUn4bwFonxmgOi29EKZVhQJl0HLEOaH6BhuNxKdRq4kE8RA/obWh9VxyLeUWsyRYCYVKxOHl+9CA1Ygtnrc0qNyftYwyMxGkXscgjv2T8mqPpD7kHcmFcFKo+zcby9KQWW1irUejJmen6+h818kOOO2uMatBT2NoUzj11TSMeENwV71PoftWNNvvpa9CBnZApfsx+p9y1nPMZChD2Oy0SLWt6XU2PJmnmQv0gLdo34Ic4Z9CS52IxF2FuLvKfN2IuASFQiBjIrHcKfrHWNqmBim4YvJxIxeoEfu+seT5GHMmvxqwGUo8BzqI2I7y29/EKdmcmtVOJvznfHQ86yzv/We9cgPclJO06ti8f0J1ssNx4X39laKORV/DvcYqGks05WXBTmUeSg39ZJuhZzx0Weh55EjB3dtdFo6Bs4rggrBMLZ+0MvIXQxfcxwd7OQwDB2CouQQLhzDZj0/xEmQqAo5rpKqoKgfyYFTP443wk/HluOtDaT6QgMvy2TcN2d2W+KXpzjsuUJJwLsPYJKhlZ0dHQYxpUXMQwcRAhqKUaKHdAOpp7DrOY9+3r2eUdLR9g4gdYCkJwuBbN1HevSUfv3kKSSQm6+f9rZZSzcTyA+RrEvmNnvT/+OCid2HBPI7pKVIlh16/Ogg3QgQs6VI38HQbSrD16jexAmRfRzJftGMCx2kiQC/8bAMiX9hqUxprwCSR5qS+Te/piFNQOr4m18AQYP4N782IS1C2o2k/ubXvwETk0bIwdPwwwAAAABJRU5ErkJggg==;" vertex="1" parent="1">
          <mxGeometry x="190" y="129.99999999999997" width="52" height="54.54" as="geometry" />
        </mxCell>
      </root>
    </mxGraphModel>
  </diagram>
</mxfile>
